<svg width="16" height="16" viewBox="0 0 16 16" fill="none" xmlns="http://www.w3.org/2000/svg">
<path d="M6.76627 0.842856C7.323 0.39984 8.10749 0.384695 8.68089 0.805894L9.34212 1.2916C9.61266 1.49033 9.93958 1.5975 10.2753 1.5975H11.1785C11.8701 1.5975 12.481 2.04834 12.6848 2.70923L12.9164 3.46027C13.0153 3.7811 13.2141 4.06195 13.4838 4.26192L14.2539 4.83297C14.8173 5.25071 15.0369 5.99045 14.7927 6.64793L14.5271 7.36319C14.3995 7.70677 14.3956 8.08408 14.5161 8.43022L14.824 9.3147C15.0506 9.96573 14.8279 10.6885 14.2742 11.0991L13.4838 11.6852C13.2141 11.8851 13.0153 12.166 12.9164 12.4868L12.6848 13.2378C12.481 13.8987 11.8701 14.3496 11.1785 14.3496H10.2753C9.93958 14.3496 9.61266 14.4568 9.34212 14.6555L8.60885 15.1941C8.06994 15.59 7.33992 15.6027 6.78752 15.2259L5.9045 14.6236C5.64272 14.4451 5.3332 14.3496 5.01632 14.3496H4.20395C3.52992 14.3496 2.93047 13.921 2.71245 13.2832L2.42501 12.4424C2.32482 12.1493 2.1405 11.8922 1.89508 11.7032L1.11477 11.1025C0.576885 10.6884 0.364543 9.97641 0.587719 9.33531L0.902799 8.43021C1.02329 8.08408 1.0194 7.70678 0.891801 7.3632L0.618435 6.62716C0.37792 5.97957 0.587109 5.25082 1.13449 4.8294L1.89508 4.24384C2.1405 4.05488 2.32482 3.79781 2.42501 3.50472L2.71245 2.66388C2.93047 2.02608 3.52992 1.5975 4.20395 1.5975H5.26732C5.62384 1.5975 5.96983 1.47663 6.2488 1.25464L6.76627 0.842856Z" fill="#FFED8C"/>
<path d="M11.7372 7.34304L8.58468 10.4955L7.95418 9.86503" fill="#F2CF18"/>
<path d="M3.5407 7.97354L5.5 9.5C5.86167 9.86603 6.01989 9.89728 6.39345 9.54339L11.1785 5.0725M11.7372 7.34304L8.58468 10.4955L7.95418 9.86503M13.4838 11.6852L14.2742 11.0991C14.8279 10.6885 15.0506 9.96573 14.824 9.3147L14.5161 8.43022C14.3956 8.08408 14.3995 7.70677 14.5271 7.36319L14.7927 6.64793C15.0369 5.99045 14.8173 5.25071 14.2539 4.83297L13.4838 4.26192C13.2141 4.06195 13.0153 3.7811 12.9164 3.46027L12.6848 2.70923C12.481 2.04834 11.8701 1.5975 11.1785 1.5975H10.2753C9.93958 1.5975 9.61266 1.49033 9.34212 1.2916L8.68089 0.805894C8.10749 0.384695 7.323 0.39984 6.76627 0.842856L6.2488 1.25464C5.96983 1.47663 5.62384 1.5975 5.26732 1.5975H4.20395C3.52992 1.5975 2.93047 2.02608 2.71245 2.66388L2.42501 3.50472C2.32482 3.79781 2.1405 4.05488 1.89508 4.24384L1.13449 4.8294C0.58711 5.25082 0.37792 5.97957 0.618435 6.62716L0.891801 7.3632C1.0194 7.70678 1.02329 8.08408 0.902799 8.43021L0.587719 9.33531C0.364543 9.97641 0.576885 10.6884 1.11477 11.1025L1.89508 11.7032C2.1405 11.8922 2.32482 12.1493 2.42501 12.4424L2.71245 13.2832C2.93047 13.921 3.52992 14.3496 4.20395 14.3496H5.01632C5.3332 14.3496 5.64272 14.4451 5.9045 14.6236L6.78752 15.2259C7.33992 15.6027 8.06995 15.59 8.60885 15.1941L9.34212 14.6555C9.61266 14.4568 9.93958 14.3496 10.2753 14.3496H11.1785C11.8701 14.3496 12.481 13.8987 12.6848 13.2378L12.9164 12.4868C13.0153 12.166 13.2141 11.8851 13.4838 11.6852Z" stroke="#F2CF18" stroke-linecap="round" stroke-linejoin="round"/>
</svg>
