<svg width="20" height="20" viewBox="0 0 20 20" fill="none" xmlns="http://www.w3.org/2000/svg">
<path d="M17.8667 9.20854L10.2084 16.8669C9.27017 17.8051 7.99769 18.3322 6.67087 18.3322C5.34405 18.3322 4.07157 17.8051 3.13337 16.8669C2.19517 15.9287 1.66809 14.6562 1.66809 13.3294C1.66809 12.0026 2.19517 10.7301 3.13337 9.79188L10.275 2.65021C10.9005 2.02364 11.7493 1.67119 12.6346 1.67041C13.5199 1.66963 14.3693 2.02058 14.9959 2.64604C15.6224 3.27151 15.9749 4.12027 15.9757 5.0056C15.9765 5.89093 15.6255 6.7403 15 7.36688L7.8417 14.5085C7.52897 14.8213 7.10481 14.997 6.66254 14.997C6.22026 14.997 5.79611 14.8213 5.48337 14.5085C5.17064 14.1958 4.99494 13.7717 4.99494 13.3294C4.99494 12.8871 5.17064 12.4629 5.48337 12.1502L12.5584 5.08354" stroke="#949494" stroke-width="2" stroke-linecap="round" stroke-linejoin="round"/>
</svg>
